<svg xmlns="http://www.w3.org/2000/svg" width="220px" viewBox="0 0 443.6 176.63"><defs><style>.cls-1{fill:#2e4c9c;}</style></defs><g id="Laag_2" data-name="Laag 2"><g id="Laag_1-2" data-name="Laag 1"><circle class="cls-1" cx="318.8" cy="14.9" r="14.9"/><path class="cls-1" d="M382,40.5a76,76,0,0,0-23.3,4.4,25,25,0,0,0-4.4,2c0,.1,1.3,4.5,2.8,9.9s2.8,9.9,2.8,9.9a10.4,10.4,0,0,0,1.2-.5c5.3-2.4,11.5-3.7,18.8-4.1,2.2-.1,7.9-.1,9.3.1a30.63,30.63,0,0,1,8.9,2.1c6.7,2.7,10.4,8.1,10.7,15.8.1,1.5,0,1.5-.1,1.5a50,50,0,0,0-8.1-1.4,91.71,91.71,0,0,0-15.1.6c-14.2,1.7-24.9,6.2-32.4,13.7A34.25,34.25,0,0,0,343,115.9a63,63,0,0,0-.1,8.7,32.74,32.74,0,0,0,3.6,13.4,29.63,29.63,0,0,0,12.8,12.7c6.2,3.2,14,4.8,22.7,4.6a44.86,44.86,0,0,0,13.8-2.3c7.2-2.4,12.4-5.8,15.2-10,.3-.4.5-.7.5-.7s.2.4.4.9a21.22,21.22,0,0,0,5.2,7.5,15.61,15.61,0,0,0,7.5,4.3,24.6,24.6,0,0,0,8.1-.1,15.57,15.57,0,0,0,6-2,18.21,18.21,0,0,0,4.6-5.2l.3-.5-.5-.3c-4.4-3.2-7.1-9.7-8-19.2-.1-.9-.2-1.8-.2-2s-.1-8.4-.1-18c-.1-17.3-.1-18.6-.4-23.1-.9-12.4-3.7-22.1-8.1-28.5-4.7-6.9-12.7-11.7-23.3-13.9A82,82,0,0,0,382,40.5ZM402.9,100c1.5.2,4.6.7,5.8,1l.5.1v6.5c0,5.1-.1,6.8-.2,8-1,8.9-4.9,14.6-11.8,17.3a30.2,30.2,0,0,1-7,1.6,56.11,56.11,0,0,1-8.2,0c-4.2-.5-7.3-1.8-9.5-3.9a13.31,13.31,0,0,1-2.3-3,17.09,17.09,0,0,1-1.7-7.9,17.67,17.67,0,0,1,2.9-10.4,17.35,17.35,0,0,1,3.5-3.7c4.4-3.5,11.1-5.4,20.2-5.9C397.8,99.7,401.1,99.8,402.9,100Z"/><path class="cls-1" d="M301.1,42.9c0,.1-9.6,21.1-9.6,21.1h14v91.4h26.2V42.8C331.6,42.8,301.1,42.8,301.1,42.9Z"/><path class="cls-1" d="M178.9,43.1c.1.1,49.8,112.2,49.8,112.2h9.5S289.3,43,289.3,42.9s-27.3-.1-27.3,0c-.3.9-28.3,67.3-28.3,67.3L207.2,42.7H179Z"/><path class="cls-1" d="M90.1,99.7a2,2,0,0,1,0-2.7l12-11.9a1.75,1.75,0,0,0,0-2.5l-7.4-7.4a1.75,1.75,0,0,0-2.5,0l-11.9,12a2,2,0,0,1-2.7,0L65.7,75.3a1.75,1.75,0,0,0-2.5,0l-7.4,7.4a1.75,1.75,0,0,0,0,2.5L67.7,97.1a2,2,0,0,1,0,2.7L55.9,111.6a1.75,1.75,0,0,0,0,2.5l7.4,7.4a1.75,1.75,0,0,0,2.5,0l10.4-10.4h0l1.4-1.4a2,2,0,0,1,2.7,0l11.9,11.9a1.75,1.75,0,0,0,2.5,0l7.4-7.4a1.75,1.75,0,0,0,0-2.5Z"/><path class="cls-1" d="M90.1,45.2a2,2,0,0,1,0-2.7l12-11.9a1.75,1.75,0,0,0,0-2.5l-7.4-7.4a1.75,1.75,0,0,0-2.5,0l-11.9,12a2,2,0,0,1-2.7,0L65.7,20.8a1.75,1.75,0,0,0-2.5,0l-7.4,7.4a1.75,1.75,0,0,0,0,2.5L67.7,42.6a2,2,0,0,1,0,2.7L55.9,57.1a1.75,1.75,0,0,0,0,2.5L63.3,67a1.75,1.75,0,0,0,2.5,0L76.2,56.6h0l1.4-1.4a2,2,0,0,1,2.7,0L92.2,67.1a1.75,1.75,0,0,0,2.5,0l7.4-7.4a1.75,1.75,0,0,0,0-2.5Z"/><path class="cls-1" d="M.1,91.3a16.68,16.68,0,0,0,6.2-1.2,9.71,9.71,0,0,0,5.1-5.6c1.4-3.5,1.6-7.1,1.7-10.8s0-7.4.2-11.1a43.87,43.87,0,0,1,1.3-10.2,14.65,14.65,0,0,1,7.2-8.8c4.1-2.2,8.5-2.7,13-2.9,1.6-.1,3.1,0,4.7,0s1.8.4,1.8,1.8v11c0,1.4-.3,1.7-1.8,1.8a54.81,54.81,0,0,0-5.7.5,5,5,0,0,0-4.5,4.7c-.2,1.4-.2,2.9-.3,4.3-.3,5.5-.4,11-.8,16.5a21.07,21.07,0,0,1-4,11.6,28.93,28.93,0,0,1-3.5,3.5,11.32,11.32,0,0,1-1.3,1c-.8.7-.7,1.3.1,2,1.3,1.1,2.5,2.3,3.7,3.4a15.82,15.82,0,0,1,3.5,6c1.6,4.4,1.8,9,2,13.6.2,4.2.3,8.5.4,12.7a7.42,7.42,0,0,0,.5,2.5c.8,2.4,2.9,3.3,5.2,3.6,1.7.2,3.4.3,5,.4,1.1.1,1.4.4,1.4,1.5v11.7c0,1.1-.4,1.5-1.5,1.6-4.8,0-9.7,0-14.4-1.4a16.28,16.28,0,0,1-8.4-5.7,17.27,17.27,0,0,1-3.4-9.7c-.3-4.4-.3-8.7-.5-13.1-.1-3.2-.3-6.5-.6-9.7a15.39,15.39,0,0,0-2.3-6.5c-1.2-2.2-3.3-3.2-5.6-3.8-1.5-.4-3-.5-4.5-.8C.1,101.1.1,96.2.1,91.3Z"/><path class="cls-1" d="M158,91.3a16.68,16.68,0,0,1-6.2-1.2,9.71,9.71,0,0,1-5.1-5.6c-1.4-3.5-1.6-7.1-1.7-10.8s0-7.4-.2-11.1a43.87,43.87,0,0,0-1.3-10.2,14.65,14.65,0,0,0-7.2-8.8c-4.1-2.2-8.5-2.7-13-2.9-1.6-.1-3.1,0-4.7,0s-1.8.4-1.8,1.8v11c0,1.4.3,1.7,1.8,1.8a54.81,54.81,0,0,1,5.7.5,5,5,0,0,1,4.5,4.7c.2,1.4.2,2.9.3,4.3.3,5.5.4,11,.8,16.5a21.07,21.07,0,0,0,4,11.6,28.93,28.93,0,0,0,3.5,3.5,11.32,11.32,0,0,0,1.3,1c.8.7.7,1.3-.1,2-1.3,1.1-2.5,2.3-3.7,3.4a15.82,15.82,0,0,0-3.5,6c-1.6,4.4-1.8,9-2,13.6-.2,4.2-.3,8.5-.4,12.7a7.42,7.42,0,0,1-.5,2.5c-.8,2.4-2.9,3.3-5.2,3.6-1.7.2-3.4.3-5,.4-1.1.1-1.4.4-1.4,1.5v11.7c0,1.1.4,1.5,1.5,1.6,4.8,0,9.7,0,14.4-1.4a16.28,16.28,0,0,0,8.4-5.7,17.27,17.27,0,0,0,3.4-9.7c.3-4.4.3-8.7.5-13.1.1-3.2.3-6.5.6-9.7a15.39,15.39,0,0,1,2.3-6.5c1.2-2.2,3.3-3.2,5.6-3.8,1.5-.4,3-.5,4.5-.8C158,101.1,158,96.2,158,91.3Z"/><path class="cls-1" d="M90.1,154.2a2,2,0,0,1,0-2.7l12-11.9a1.75,1.75,0,0,0,0-2.5l-7.4-7.4a1.75,1.75,0,0,0-2.5,0l-11.9,12a2,2,0,0,1-2.7,0L65.7,129.8a1.75,1.75,0,0,0-2.5,0l-7.4,7.4a1.75,1.75,0,0,0,0,2.5l11.9,11.9a2,2,0,0,1,0,2.7L55.9,166.1a1.75,1.75,0,0,0,0,2.5l7.4,7.4a1.75,1.75,0,0,0,2.5,0l10.4-10.4h0l1.4-1.4a2,2,0,0,1,2.7,0l11.9,11.9a1.75,1.75,0,0,0,2.5,0l7.4-7.4a1.75,1.75,0,0,0,0-2.5Z"/></g></g></svg>